<?xml version="1.0" encoding="UTF-8"?>
<svg id="Layer_2" data-name="Layer 2" xmlns="http://www.w3.org/2000/svg" viewBox="0 0 1028.38 1034.12">
  <defs>
    <style>
      .cls-1 {
        stroke-width: 5.07px;
      }

      .cls-1, .cls-2, .cls-3 {
        stroke: #f8fbf2;
        stroke-miterlimit: 10;
      }

      .cls-1, .cls-3 {
        fill: #f8fbf2;
      }

      .cls-2 {
        fill: none;
        stroke-width: 30px;
      }

      .cls-3 {
        stroke-width: 1.01px;
      }
    </style>
  </defs>
  <rect class="cls-2" x="15.13" y="21.19" width="998.12" height="997.8"/>
  <g id="Y">
    <line class="cls-1" x1="609.77" y1="42.64" x2="155.54" y2="997.52"/>
    <line class="cls-1" x1="155.3" y1="42.76" x2="383.21" y2="518.51"/>
    <polygon class="cls-3" points="363.26 538.94 372.78 517.97 147.69 45.21 128.63 45.21 363.26 538.94"/>
    <polygon class="cls-3" points="616.8 41.86 636.43 83.42 201.67 1000.36 163.43 1000.37 616.8 41.86"/>
  </g>
  <g id="X">
    <line class="cls-1" x1="883.69" y1="43.07" x2="429.27" y2="998.36"/>
    <line class="cls-1" x1="884.84" y1="998.24" x2="430.13" y2="43.59"/>
    <polygon class="cls-3" points="690.76 511.71 667.48 516.9 892.33 44.02 911.39 44.02 690.76 511.71"/>
    <polygon class="cls-3" points="690.77 527.79 667.48 522.62 892.57 995.38 911.63 995.37 690.77 527.79"/>
  </g>
</svg>